<svg width="1200" height="620" viewBox="0 0 1200 620" fill="none" xmlns="http://www.w3.org/2000/svg">
  <defs>
    <linearGradient id="panel" x1="0" x2="1" y1="0" y2="1">
      <stop stop-color="#101D25"/>
      <stop offset=".55" stop-color="#081118"/>
      <stop offset="1" stop-color="#050A0E"/>
    </linearGradient>
    <radialGradient id="glow" cx="0" cy="0" r="1" gradientUnits="userSpaceOnUse" gradientTransform="translate(900 150) rotate(128) scale(430 300)">
      <stop stop-color="#72D89A" stop-opacity=".15"/>
      <stop offset=".62" stop-color="#72D89A" stop-opacity=".035"/>
      <stop offset="1" stop-color="#72D89A" stop-opacity="0"/>
    </radialGradient>
    <pattern id="grid" width="44" height="44" patternUnits="userSpaceOnUse">
      <path d="M44 0H0V44" stroke="#4EC4EC" stroke-opacity=".04"/>
    </pattern>
    <filter id="shadow" x="-8%" y="-18%" width="116%" height="140%" color-interpolation-filters="sRGB">
      <feDropShadow dx="0" dy="34" stdDeviation="36" flood-color="#000000" flood-opacity=".62"/>
      <feDropShadow dx="0" dy="0" stdDeviation="28" flood-color="#4EC4EC" flood-opacity=".09"/>
    </filter>
  </defs>

  <rect width="1200" height="620" fill="none"/>
  <rect width="1200" height="620" fill="url(#glow)"/>

  <g filter="url(#shadow)">
    <rect x="72" y="58" width="1056" height="504" fill="#04080C" stroke="#31536A" stroke-width="1.5"/>
    <rect x="92" y="78" width="1016" height="464" fill="url(#panel)" stroke="#243E4F"/>
    <rect x="92" y="78" width="1016" height="464" fill="url(#grid)"/>

    <text x="132" y="136" fill="#9CCFE4" font-family="Inter, Arial, sans-serif" font-size="16" font-weight="700" letter-spacing="7">DRIVER MAP</text>
    <text x="132" y="176" fill="#F6FAFC" font-family="Inter, Arial, sans-serif" font-size="38" font-weight="760" letter-spacing="-1.7">See the leak, the watchlist, and the edge.</text>
    <path d="M132 214H1068" stroke="#274456"/>

    <g font-family="Inter, Arial, sans-serif">
      <rect x="132" y="252" width="276" height="226" fill="#071017" stroke="#F05E77" stroke-opacity=".68"/>
      <path d="M132 252V478" stroke="#F05E77" stroke-width="4"/>
      <text x="162" y="300" fill="#F05E77" font-size="14" font-weight="800" letter-spacing="4">NEGATIVE</text>
      <text x="162" y="354" fill="#F05E77" font-size="42" font-weight="780" letter-spacing="-1.5">-$1,140</text>
      <text x="162" y="386" fill="#D7E8F0" font-size="17">Cost drag</text>
      <rect x="162" y="416" width="206" height="34" fill="#081018" stroke="#243E4F"/>
      <circle cx="182" cy="433" r="4" fill="#F05E77"/>
      <text x="198" y="438" fill="#D7E8F0" font-size="15">META weakest segment</text>

      <rect x="462" y="252" width="276" height="226" fill="#071017" stroke="#E8BE4C" stroke-opacity=".68"/>
      <path d="M462 252V478" stroke="#E8BE4C" stroke-width="4"/>
      <text x="492" y="300" fill="#E8BE4C" font-size="14" font-weight="800" letter-spacing="4">WATCHLIST</text>
      <text x="492" y="354" fill="#E8BE4C" font-size="42" font-weight="780" letter-spacing="-1.5">46.4%</text>
      <text x="492" y="386" fill="#D7E8F0" font-size="17">Win rate near threshold</text>
      <path d="M492 430H698" stroke="#17303B" stroke-width="9"/>
      <path d="M492 430H588" stroke="#E8BE4C" stroke-width="9"/>
      <circle cx="588" cy="430" r="6" fill="#E8BE4C"/>

      <rect x="792" y="252" width="276" height="226" fill="#071017" stroke="#72D89A" stroke-opacity=".68"/>
      <path d="M792 252V478" stroke="#72D89A" stroke-width="4"/>
      <text x="822" y="300" fill="#72D89A" font-size="14" font-weight="800" letter-spacing="4">POSITIVE</text>
      <text x="822" y="354" fill="#72D89A" font-size="42" font-weight="780" letter-spacing="-1.5">$1,114</text>
      <text x="822" y="386" fill="#D7E8F0" font-size="17">Best segment by net PnL</text>
      <rect x="822" y="416" width="206" height="34" fill="#081018" stroke="#243E4F"/>
      <circle cx="842" cy="433" r="4" fill="#72D89A"/>
      <text x="858" y="438" fill="#D7E8F0" font-size="15">TSLA strength</text>
    </g>
  </g>
</svg>
