<svg width="1200" height="680" viewBox="0 0 1200 680" fill="none" xmlns="http://www.w3.org/2000/svg">
  <defs>
    <linearGradient id="panel" x1="0" x2="1" y1="0" y2="1">
      <stop stop-color="#101D25"/>
      <stop offset=".55" stop-color="#081118"/>
      <stop offset="1" stop-color="#050A0E"/>
    </linearGradient>
    <radialGradient id="glow" cx="0" cy="0" r="1" gradientUnits="userSpaceOnUse" gradientTransform="translate(790 145) rotate(120) scale(520 360)">
      <stop stop-color="#4EC4EC" stop-opacity=".16"/>
      <stop offset=".52" stop-color="#4EC4EC" stop-opacity=".04"/>
      <stop offset="1" stop-color="#4EC4EC" stop-opacity="0"/>
    </radialGradient>
    <pattern id="grid" width="44" height="44" patternUnits="userSpaceOnUse">
      <path d="M44 0H0V44" stroke="#4EC4EC" stroke-opacity=".04"/>
    </pattern>
    <filter id="shadow" x="-8%" y="-18%" width="116%" height="140%" color-interpolation-filters="sRGB">
      <feDropShadow dx="0" dy="34" stdDeviation="36" flood-color="#000000" flood-opacity=".62"/>
      <feDropShadow dx="0" dy="0" stdDeviation="28" flood-color="#4EC4EC" flood-opacity=".10"/>
    </filter>
  </defs>

  <rect width="1200" height="680" fill="none"/>
  <rect width="1200" height="680" fill="url(#glow)"/>

  <g filter="url(#shadow)">
    <rect x="72" y="58" width="1056" height="564" fill="#04080C" stroke="#31536A" stroke-width="1.5"/>
    <rect x="92" y="78" width="1016" height="524" fill="url(#panel)" stroke="#243E4F"/>
    <rect x="92" y="78" width="1016" height="524" fill="url(#grid)"/>

    <text x="132" y="136" fill="#9CCFE4" font-family="Inter, Arial, sans-serif" font-size="16" font-weight="700" letter-spacing="7">PRO REVIEW LOOP</text>
    <text x="132" y="178" fill="#F6FAFC" font-family="Inter, Arial, sans-serif" font-size="40" font-weight="760" letter-spacing="-1.9">Know what to prove on the next upload.</text>
    <path d="M132 218H1068" stroke="#274456"/>

    <g font-family="Inter, Arial, sans-serif">
      <rect x="132" y="256" width="294" height="150" fill="#071017" stroke="#E8BE4C" stroke-opacity=".72"/>
      <text x="162" y="302" fill="#E8BE4C" font-size="14" font-weight="800" letter-spacing="4">COST DRAG</text>
      <circle cx="202" cy="352" r="40" stroke="#17303B" stroke-width="10"/>
      <path d="M202 312A40 40 0 0 1 235 375" stroke="#E8BE4C" stroke-width="10" stroke-linecap="round"/>
      <text x="292" y="350" fill="#E8BE4C" font-size="42" font-weight="780">38th</text>
      <text x="292" y="378" fill="#9EB1BD" font-size="14">percentile</text>

      <rect x="453" y="256" width="294" height="150" fill="#071017" stroke="#4EC4EC" stroke-opacity=".72"/>
      <text x="483" y="302" fill="#4EC4EC" font-size="14" font-weight="800" letter-spacing="4">R-CAPTURE</text>
      <circle cx="523" cy="352" r="40" stroke="#17303B" stroke-width="10"/>
      <path d="M523 312A40 40 0 1 1 492 377" stroke="#4EC4EC" stroke-width="10" stroke-linecap="round"/>
      <text x="613" y="350" fill="#4EC4EC" font-size="42" font-weight="780">59th</text>
      <text x="613" y="378" fill="#9EB1BD" font-size="14">percentile</text>

      <rect x="774" y="256" width="294" height="150" fill="#071017" stroke="#4EC4EC" stroke-opacity=".72"/>
      <text x="804" y="302" fill="#4EC4EC" font-size="14" font-weight="800" letter-spacing="4">EXPECTANCY</text>
      <circle cx="844" cy="352" r="40" stroke="#17303B" stroke-width="10"/>
      <path d="M844 312A40 40 0 1 1 816 381" stroke="#4EC4EC" stroke-width="10" stroke-linecap="round"/>
      <text x="934" y="350" fill="#4EC4EC" font-size="42" font-weight="780">63rd</text>
      <text x="934" y="378" fill="#9EB1BD" font-size="14">percentile</text>
    </g>

    <g font-family="Inter, Arial, sans-serif">
      <rect x="132" y="442" width="936" height="96" fill="#071017" stroke="#284657"/>
      <path d="M132 442V538" stroke="#F05E77" stroke-width="4"/>
      <text x="164" y="478" fill="#F6FAFC" font-size="25" font-weight="760">Review overdue</text>
      <text x="164" y="510" fill="#D7E8F0" font-size="17">Import after the next 2-3 sessions and verify the three open issues.</text>

      <rect x="736" y="464" width="92" height="52" fill="#081018" stroke="#243E4F"/>
      <text x="782" y="497" fill="#F6FAFC" font-size="26" font-weight="760" text-anchor="middle">3</text>
      <text x="782" y="516" fill="#9EB1BD" font-size="11" text-anchor="middle">issues</text>

      <rect x="846" y="464" width="176" height="52" fill="#081018" stroke="#243E4F"/>
      <text x="868" y="496" fill="#E8BE4C" font-size="14" font-weight="800" letter-spacing="3">NEXT TARGET</text>
      <text x="1004" y="496" fill="#72D89A" font-size="16" font-weight="760" text-anchor="end">Protect expectancy</text>
    </g>
  </g>
</svg>
