<svg width="900" height="620" viewBox="0 0 900 620" fill="none" xmlns="http://www.w3.org/2000/svg">
  <g stroke="#45D5FF" stroke-opacity=".18" stroke-width="1">
    <path d="M-64 123c88-62 166-77 236-42 74 37 136 29 208-24 86-63 160-70 239-26 83 46 160 39 251-28"/>
    <path d="M-28 176c94-64 178-82 254-46 79 38 145 29 222-28 92-68 172-73 256-28 86 46 164 42 259-28"/>
    <path d="M5 232c102-71 190-88 270-50 82 39 154 29 236-32 94-70 182-76 270-29 93 50 178 42 278-32"/>
    <path d="M-92 386c118-78 218-91 302-41 88 52 168 42 257-22 101-72 194-76 286-28 99 51 188 44 293-28"/>
    <path d="M-55 451c125-84 230-97 322-45 95 54 179 45 271-22 108-79 207-84 305-31 104 55 200 47 313-32"/>
    <path d="M-20 513c132-88 246-103 344-48 103 57 190 48 287-24 114-85 219-88 322-34 111 59 212 50 333-34"/>
  </g>
</svg>
