<svg width="1200" height="630" viewBox="0 0 1200 630" fill="none" xmlns="http://www.w3.org/2000/svg" role="img" aria-labelledby="title desc">
  <title id="title">EdgeTrace social preview image</title>
  <desc id="desc">EdgeTrace strategy intelligence social preview with logo, tagline, and analytical grid.</desc>
  <rect width="1200" height="630" fill="#070B14"/>
  <rect width="1200" height="630" fill="url(#bg)"/>
  <g opacity=".16" stroke="#45D5FF">
    <path d="M0 440c139-82 248-93 365-177 151-108 277-107 412-24 142 88 263 87 423-32"/>
    <path d="M0 500c158-92 263-102 392-193 148-105 271-98 407-18 142 84 269 91 401-19"/>
    <path d="M0 560c180-96 300-106 430-194 150-102 282-105 430-18 129 76 231 76 340-10"/>
  </g>
  <g transform="translate(72 76)">
    <path d="M90 0 174 168h-35L90 63 41 168H6L90 0Z" fill="url(#outer)"/>
    <path d="M90 55 148 168h-31L90 109 63 168H32L90 55Z" fill="#070B14" stroke="url(#inner)" stroke-width="10" stroke-linejoin="round"/>
    <text x="230" y="90" fill="#F3F6FF" font-family="Inter, Arial, sans-serif" font-size="72" letter-spacing="18">EdgeTrace</text>
    <text x="235" y="140" fill="#45D5FF" font-family="Inter, Arial, sans-serif" font-size="18" letter-spacing="8">STRATEGY INTELLIGENCE FOR TRADERS</text>
  </g>
  <text x="80" y="344" fill="#F3F6FF" font-family="Inter, Arial, sans-serif" font-size="54" font-weight="600">Understand what changed.</text>
  <text x="80" y="412" fill="#F3F6FF" font-family="Inter, Arial, sans-serif" font-size="54" font-weight="600">Know what matters.</text>
  <text x="82" y="488" fill="#9CA8C7" font-family="Inter, Arial, sans-serif" font-size="24">Performance attribution, cost drag, expectancy, R capture, and strategy iteration intelligence.</text>
  <g transform="translate(854 286)">
    <rect width="258" height="190" rx="18" fill="#0D1424" stroke="#243B64"/>
    <text x="24" y="42" fill="#9CA8C7" font-family="Inter, Arial, sans-serif" font-size="14">Primary Diagnosis</text>
    <text x="24" y="82" fill="#F3F6FF" font-family="Inter, Arial, sans-serif" font-size="30">Cost Drag</text>
    <text x="24" y="126" fill="#9CA8C7" font-family="Inter, Arial, sans-serif" font-size="16">Costs are eroding</text>
    <text x="24" y="152" fill="#9CA8C7" font-family="Inter, Arial, sans-serif" font-size="16">after-cost edge.</text>
  </g>
  <defs>
    <radialGradient id="bg" cx="0" cy="0" r="1" gradientUnits="userSpaceOnUse" gradientTransform="translate(1070 126) rotate(143) scale(658 562)">
      <stop stop-color="#17305E"/><stop offset=".5" stop-color="#070B14"/><stop offset="1" stop-color="#070A12"/>
    </radialGradient>
    <linearGradient id="outer" x1="8" y1="160" x2="144" y2="6" gradientUnits="userSpaceOnUse">
      <stop stop-color="#7861FF"/><stop offset=".48" stop-color="#3E8BFF"/><stop offset="1" stop-color="#45D5FF"/>
    </linearGradient>
    <linearGradient id="inner" x1="38" y1="160" x2="136" y2="57" gradientUnits="userSpaceOnUse">
      <stop stop-color="#7861FF"/><stop offset="1" stop-color="#45D5FF"/>
    </linearGradient>
  </defs>
</svg>
