<svg width="1440" height="900" viewBox="0 0 1440 900" fill="none" xmlns="http://www.w3.org/2000/svg" role="img" aria-labelledby="title desc">
  <title id="title">EdgeTrace product diagnostics visual</title>
  <desc id="desc">A product-focused visual showing completed trades being transformed into diagnostics, attribution, and next inspection paths.</desc>
  <defs>
    <radialGradient id="bg" cx="0" cy="0" r="1" gradientUnits="userSpaceOnUse" gradientTransform="translate(720 386) rotate(90) scale(598 706)">
      <stop stop-color="#102A54"/>
      <stop offset=".45" stop-color="#081124"/>
      <stop offset="1" stop-color="#070B14"/>
    </radialGradient>
    <linearGradient id="blue" x1="150" y1="620" x2="1012" y2="138" gradientUnits="userSpaceOnUse">
      <stop stop-color="#7861FF"/>
      <stop offset=".48" stop-color="#3E8BFF"/>
      <stop offset="1" stop-color="#45D5FF"/>
    </linearGradient>
    <linearGradient id="panel" x1="330" y1="154" x2="1072" y2="728" gradientUnits="userSpaceOnUse">
      <stop stop-color="#121A2B"/>
      <stop offset="1" stop-color="#080E1A"/>
    </linearGradient>
    <filter id="glow" x="-100" y="-100" width="1640" height="1100" color-interpolation-filters="sRGB" filterUnits="userSpaceOnUse">
      <feGaussianBlur stdDeviation="12" result="blur"/>
      <feColorMatrix in="blur" type="matrix" values="0 0 0 0 0.22 0 0 0 0 0.55 0 0 0 0 1 0 0 0 .35 0"/>
      <feBlend in="SourceGraphic"/>
    </filter>
  </defs>

  <rect width="1440" height="900" rx="34" fill="url(#bg)"/>
  <g opacity=".15" stroke="#45D5FF">
    <path d="M0 112c168 64 298 67 456 12 184-64 296-56 454 6 164 64 306 50 530-54"/>
    <path d="M0 808c178-96 312-112 468-54 132 50 246 48 384-2 154-56 300-43 588 64"/>
  </g>
  <g opacity=".18" stroke="#243B64">
    <path d="M72 726h1296M72 782h1296M72 838h1296"/>
    <path d="M168 682v218M280 682v218M392 682v218M504 682v218M616 682v218M728 682v218M840 682v218M952 682v218M1064 682v218M1176 682v218M1288 682v218"/>
  </g>

  <g filter="url(#glow)">
    <g transform="translate(86 172)">
      <text x="0" y="0" fill="#A7B3D6" font-family="Inter, Arial, sans-serif" font-size="15" letter-spacing="8">COMPLETED TRADES</text>
      <g transform="translate(0 42)">
        <g fill="#3E8BFF">
          <circle cx="0" cy="0" r="5"/><circle cx="0" cy="32" r="5"/><circle cx="0" cy="64" r="5"/><circle cx="0" cy="96" r="5"/><circle cx="0" cy="128" r="5"/><circle cx="0" cy="160" r="5"/><circle cx="0" cy="192" r="5"/><circle cx="0" cy="224" r="5"/><circle cx="0" cy="256" r="5"/><circle cx="0" cy="288" r="5"/><circle cx="0" cy="320" r="5"/>
        </g>
        <g stroke-width="7" stroke-linecap="round">
          <path d="M24 0h88" stroke="#45D5FF"/><path d="M136 0h40" stroke="#243B64"/>
          <path d="M24 32h152" stroke="#243B64"/><path d="M202 32h56" stroke="#7861FF"/>
          <path d="M24 64h116" stroke="#3E8BFF"/><path d="M166 64h88" stroke="#243B64"/>
          <path d="M24 96h194" stroke="#243B64"/><path d="M242 96h52" stroke="#45D5FF"/>
          <path d="M24 128h132" stroke="#7861FF"/><path d="M182 128h82" stroke="#243B64"/>
          <path d="M24 160h174" stroke="#3E8BFF"/><path d="M224 160h48" stroke="#243B64"/>
          <path d="M24 192h102" stroke="#45D5FF"/><path d="M152 192h138" stroke="#243B64"/>
          <path d="M24 224h142" stroke="#243B64"/><path d="M192 224h74" stroke="#7861FF"/>
          <path d="M24 256h204" stroke="#243B64"/>
          <path d="M24 288h136" stroke="#3E8BFF"/><path d="M186 288h70" stroke="#243B64"/>
          <path d="M24 320h168" stroke="#7861FF"/><path d="M214 320h48" stroke="#243B64"/>
        </g>
      </g>
    </g>

    <g opacity=".8" stroke="url(#blue)" stroke-width="2">
      <path d="M354 220C470 220 506 280 602 360"/>
      <path d="M354 284C478 286 522 306 602 378"/>
      <path d="M354 348C472 350 524 356 602 402"/>
      <path d="M354 412C472 412 520 412 602 420"/>
      <path d="M354 476C476 474 524 456 602 438"/>
      <path d="M354 540C474 536 514 510 602 462"/>
    </g>

    <g transform="translate(474 142)">
      <rect width="566" height="562" rx="28" fill="url(#panel)" stroke="#243B64"/>
      <rect x="28" y="28" width="510" height="62" rx="16" fill="#070B14" stroke="#243B64"/>
      <text x="54" y="67" fill="#F6F8FF" font-family="Inter, Arial, sans-serif" font-size="18" font-weight="650">EdgeTrace Report Overview</text>
      <text x="356" y="66" fill="#A7B3D6" font-family="IBM Plex Mono, Consolas, monospace" font-size="14">ORB V3</text>

      <g transform="translate(28 120)">
        <rect width="154" height="138" rx="16" fill="#0D1424" stroke="#243B64"/>
        <text x="18" y="34" fill="#A7B3D6" font-family="Inter, Arial, sans-serif" font-size="12" letter-spacing="2">HEALTH SCORE</text>
        <circle cx="77" cy="82" r="32" stroke="#243B64" stroke-width="10"/>
        <path d="M77 50a32 32 0 1 1-27 49" stroke="#3DDC97" stroke-width="10" stroke-linecap="round"/>
        <text x="77" y="91" fill="#F6F8FF" text-anchor="middle" font-family="IBM Plex Mono, Consolas, monospace" font-size="26">72</text>
        <text x="77" y="120" fill="#3DDC97" text-anchor="middle" font-family="Inter, Arial, sans-serif" font-size="12">Watchlist</text>
      </g>

      <g transform="translate(206 120)">
        <rect width="154" height="138" rx="16" fill="#0D1424" stroke="#243B64"/>
        <text x="18" y="34" fill="#A7B3D6" font-family="Inter, Arial, sans-serif" font-size="12" letter-spacing="2">PRIMARY LEAK</text>
        <text x="18" y="72" fill="#F6F8FF" font-family="Inter, Arial, sans-serif" font-size="25" font-weight="650">Cost Drag</text>
        <text x="18" y="104" fill="#A7B3D6" font-family="Inter, Arial, sans-serif" font-size="13">Gross edge exists,</text>
        <text x="18" y="125" fill="#A7B3D6" font-family="Inter, Arial, sans-serif" font-size="13">costs reduce it.</text>
      </g>

      <g transform="translate(384 120)">
        <rect width="154" height="138" rx="16" fill="#0D1424" stroke="#243B64"/>
        <text x="18" y="34" fill="#A7B3D6" font-family="Inter, Arial, sans-serif" font-size="12" letter-spacing="2">NEXT INSPECTION</text>
        <text x="18" y="72" fill="#45D5FF" font-family="Inter, Arial, sans-serif" font-size="16" font-weight="650">Inspect QQQ</text>
        <text x="18" y="101" fill="#FFB84D" font-family="Inter, Arial, sans-serif" font-size="16" font-weight="650">Review Open</text>
        <text x="18" y="130" fill="#7861FF" font-family="Inter, Arial, sans-serif" font-size="16" font-weight="650">Compare V2</text>
      </g>

      <g transform="translate(28 292)">
        <rect width="332" height="218" rx="16" fill="#0D1424" stroke="#243B64"/>
        <text x="18" y="34" fill="#A7B3D6" font-family="Inter, Arial, sans-serif" font-size="12" letter-spacing="2">EQUITY CURVE</text>
        <g opacity=".45" stroke="#243B64">
          <path d="M34 74h272M34 112h272M34 150h272M34 188h272"/>
          <path d="M64 56v144M124 56v144M184 56v144M244 56v144"/>
        </g>
        <path d="M42 178l28-18 28 8 28-42 28 34 28-58 28 42 28-8 28-34 28 28 28-54" stroke="#45D5FF" stroke-width="5" fill="none" stroke-linecap="round" stroke-linejoin="round"/>
      </g>

      <g transform="translate(384 292)">
        <rect width="154" height="218" rx="16" fill="#0D1424" stroke="#243B64"/>
        <text x="18" y="34" fill="#A7B3D6" font-family="Inter, Arial, sans-serif" font-size="12" letter-spacing="2">KEY METRICS</text>
        <text x="18" y="76" fill="#45D5FF" font-family="IBM Plex Mono, Consolas, monospace" font-size="26">+0.31</text>
        <text x="18" y="99" fill="#A7B3D6" font-family="Inter, Arial, sans-serif" font-size="12">Expectancy</text>
        <text x="18" y="142" fill="#FFB84D" font-family="IBM Plex Mono, Consolas, monospace" font-size="26">18%</text>
        <text x="18" y="165" fill="#A7B3D6" font-family="Inter, Arial, sans-serif" font-size="12">Cost drag</text>
        <text x="18" y="204" fill="#7861FF" font-family="IBM Plex Mono, Consolas, monospace" font-size="26">0.72R</text>
      </g>
    </g>

    <g transform="translate(1084 186)">
      <rect width="260" height="132" rx="18" fill="#0D1424" stroke="#45D5FF" stroke-opacity=".7"/>
      <text x="24" y="38" fill="#A7B3D6" font-family="Inter, Arial, sans-serif" font-size="13" letter-spacing="5">EXPECTANCY</text>
      <text x="24" y="84" fill="#45D5FF" font-family="IBM Plex Mono, Consolas, monospace" font-size="42">+0.31</text>
      <path d="M140 96c30-22 48-12 76-30 16-11 26-15 36-13" stroke="#45D5FF" stroke-width="3" fill="none"/>
    </g>
    <g transform="translate(1084 360)">
      <rect width="260" height="132" rx="18" fill="#0D1424" stroke="#FFB84D" stroke-opacity=".62"/>
      <text x="24" y="38" fill="#A7B3D6" font-family="Inter, Arial, sans-serif" font-size="13" letter-spacing="5">COST DRAG</text>
      <text x="24" y="84" fill="#FFB84D" font-family="IBM Plex Mono, Consolas, monospace" font-size="42">18%</text>
      <path d="M138 90c34 8 48-8 78 2 18 6 28 3 40-4" stroke="#FFB84D" stroke-width="3" fill="none"/>
    </g>
    <g transform="translate(1084 534)">
      <rect width="260" height="132" rx="18" fill="#0D1424" stroke="#7861FF" stroke-opacity=".7"/>
      <text x="24" y="38" fill="#A7B3D6" font-family="Inter, Arial, sans-serif" font-size="13" letter-spacing="5">R CAPTURE</text>
      <text x="24" y="84" fill="#9B86FF" font-family="IBM Plex Mono, Consolas, monospace" font-size="42">0.72R</text>
      <path d="M138 96c34-26 50-4 76-22 18-12 30-7 42-18" stroke="#7861FF" stroke-width="3" fill="none"/>
    </g>

    <path d="M1040 252c22 0 28 0 44 0" stroke="#45D5FF" stroke-width="3"/>
    <path d="M1040 426c22 0 28 0 44 0" stroke="#FFB84D" stroke-width="3"/>
    <path d="M1040 600c22 0 28 0 44 0" stroke="#7861FF" stroke-width="3"/>
  </g>
</svg>
